<?xml version="1.0" standalone="no"?>
<!DOCTYPE svg PUBLIC "-//W3C//DTD SVG 20010904//EN"
 "http://www.w3.org/TR/2001/REC-SVG-20010904/DTD/svg10.dtd">
<svg version="1.0" xmlns="http://www.w3.org/2000/svg"
 width="128.000000pt" height="128.000000pt" viewBox="0 0 128.000000 128.000000"
 preserveAspectRatio="xMidYMid meet">

<g transform="translate(0.000000,128.000000) scale(0.100000,-0.100000)"
fill="#000000" stroke="none">
<path d="M360 1004 c0 -3 9 -17 20 -31 19 -24 20 -41 20 -329 l0 -302 -27 -32
-27 -32 205 4 c186 3 208 6 254 26 60 28 91 55 115 102 56 110 19 234 -82 280
l-37 16 29 17 c36 21 65 94 56 138 -15 79 -65 120 -167 139 -55 11 -359 14
-359 4z m300 -99 c64 -33 78 -95 33 -145 -27 -30 -103 -57 -124 -45 -5 4 -9
51 -9 106 l0 99 35 0 c20 0 49 -7 65 -15z m52 -291 c44 -23 68 -62 68 -111 0
-38 -6 -51 -33 -78 -38 -38 -96 -57 -149 -49 l-38 7 0 122 c0 89 3 125 13 129
19 8 109 -5 139 -20z"/>
</g>
</svg>
