<?xml version="1.0" standalone="no"?>
<!DOCTYPE svg PUBLIC "-//W3C//DTD SVG 20010904//EN"
 "http://www.w3.org/TR/2001/REC-SVG-20010904/DTD/svg10.dtd">
<svg version="1.0" xmlns="http://www.w3.org/2000/svg"
 width="128.000000pt" height="128.000000pt" viewBox="0 0 128.000000 128.000000"
 preserveAspectRatio="xMidYMid meet">
<metadata>
Created by potrace 1.16, written by Peter Selinger 2001-2019
</metadata>
<g transform="translate(0.000000,128.000000) scale(0.100000,-0.100000)"
fill="#000000" stroke="none">
<path d="M477 1071 c-137 -59 -226 -153 -277 -290 -18 -46 -21 -73 -18 -157 3
-93 6 -106 42 -180 51 -102 120 -171 224 -221 75 -37 79 -38 192 -38 113 0
117 1 192 38 104 50 173 119 224 221 39 79 39 81 39 196 0 115 0 117 -39 196
-51 102 -120 171 -224 221 -72 36 -83 38 -182 41 -97 2 -110 0 -173 -27z m20
-273 c13 -12 23 -32 23 -45 0 -30 -42 -73 -70 -73 -28 0 -70 43 -70 73 0 32
35 67 67 67 15 0 37 -10 50 -22z m383 2 c11 -11 20 -31 20 -45 0 -31 -41 -75
-70 -75 -28 0 -70 43 -70 71 0 57 79 90 120 49z m76 -251 c3 -6 -9 -41 -27
-77 -57 -112 -158 -172 -289 -172 -131 0 -232 60 -289 172 -18 36 -30 71 -27
77 10 15 622 15 632 0z"/>
</g>
</svg>
