<?xml version="1.0" standalone="no"?>
<!DOCTYPE svg PUBLIC "-//W3C//DTD SVG 20010904//EN"
 "http://www.w3.org/TR/2001/REC-SVG-20010904/DTD/svg10.dtd">
<svg version="1.0" xmlns="http://www.w3.org/2000/svg"
 width="128.000000pt" height="128.000000pt" viewBox="0 0 128.000000 128.000000"
 preserveAspectRatio="xMidYMid meet">

<g transform="translate(0.000000,128.000000) scale(0.100000,-0.100000)"
fill="#000000" stroke="none">
<path d="M140 1004 c0 -3 9 -17 20 -31 19 -24 20 -41 20 -329 l0 -302 -26 -31
-26 -31 132 0 132 0 -26 31 c-25 30 -26 35 -26 170 l0 139 160 0 160 0 0 -139
c0 -135 -1 -140 -26 -170 l-26 -31 132 0 132 0 -26 31 -26 31 0 301 c0 284 2
303 20 327 11 14 20 28 20 33 0 4 -54 7 -120 7 -66 0 -120 -3 -120 -6 0 -3 9
-17 20 -31 17 -22 20 -41 20 -139 l0 -114 -160 0 -160 0 0 108 c0 89 3 112 20
140 11 18 20 35 20 37 0 3 -54 5 -120 5 -66 0 -120 -3 -120 -6z"/>
<path d="M1036 761 c-21 -22 -58 -50 -82 -63 -53 -28 -55 -38 -9 -38 l35 0 0
-174 c0 -142 -3 -176 -15 -186 -29 -24 -14 -30 76 -30 l90 0 -20 26 c-20 25
-21 39 -21 265 0 132 -4 239 -8 239 -4 0 -25 -18 -46 -39z"/>
</g>
</svg>
