<?xml version="1.0" standalone="no"?>
<!DOCTYPE svg PUBLIC "-//W3C//DTD SVG 20010904//EN"
 "http://www.w3.org/TR/2001/REC-SVG-20010904/DTD/svg10.dtd">
<svg version="1.0" xmlns="http://www.w3.org/2000/svg"
 width="128.000000pt" height="128.000000pt" viewBox="0 0 128.000000 128.000000"
 preserveAspectRatio="xMidYMid meet">

<g transform="translate(0.000000,128.000000) scale(0.100000,-0.100000)"
fill="#000000" stroke="none">
<path d="M50 1004 c0 -3 9 -17 20 -31 19 -24 20 -41 20 -329 l0 -302 -26 -31
-26 -31 132 0 132 0 -26 31 c-25 30 -26 35 -26 170 l0 139 160 0 160 0 0 -139
c0 -135 -1 -140 -26 -170 l-26 -31 132 0 132 0 -26 31 -26 31 0 301 c0 284 2
303 20 327 11 14 20 28 20 33 0 4 -54 7 -120 7 -66 0 -120 -3 -120 -6 0 -3 9
-17 20 -31 17 -22 20 -41 20 -139 l0 -114 -160 0 -160 0 0 108 c0 89 3 112 20
140 11 18 20 35 20 37 0 3 -54 5 -120 5 -66 0 -120 -3 -120 -6z"/>
<path d="M946 781 c-24 -5 -34 -16 -49 -54 -11 -26 -17 -51 -13 -54 3 -4 21 0
39 9 83 40 147 27 147 -29 0 -39 -73 -161 -219 -364 -13 -19 -9 -19 171 -19
l185 0 23 50 c13 27 21 52 18 55 -3 3 -22 -2 -44 -11 -47 -20 -211 -33 -200
-16 3 6 37 51 74 101 86 115 112 166 112 223 0 56 -27 93 -78 108 -40 11 -119
12 -166 1z"/>
</g>
</svg>
