<?xml version="1.0" standalone="no"?>
<!DOCTYPE svg PUBLIC "-//W3C//DTD SVG 20010904//EN"
 "http://www.w3.org/TR/2001/REC-SVG-20010904/DTD/svg10.dtd">
<svg version="1.0" xmlns="http://www.w3.org/2000/svg"
 width="128.000000pt" height="128.000000pt" viewBox="0 0 128.000000 128.000000"
 preserveAspectRatio="xMidYMid meet">
<metadata>
Created by potrace 1.16, written by Peter Selinger 2001-2019
</metadata>
<g transform="translate(0.000000,128.000000) scale(0.100000,-0.100000)"
fill="#000000" stroke="none">
<path d="M743 1054 c-48 -24 -133 -112 -154 -158 -21 -45 -26 -151 -8 -162 13
-8 109 84 109 105 0 21 48 80 84 102 18 11 49 19 75 19 36 0 49 -6 77 -34 28
-28 34 -41 34 -77 0 -26 -8 -57 -19 -75 -22 -36 -81 -84 -102 -84 -21 0 -113
-96 -105 -109 11 -18 117 -13 161 8 52 23 151 125 166 169 6 18 9 66 7 106 -4
81 -25 120 -95 173 -32 24 -47 28 -117 31 -60 2 -89 -2 -113 -14z"/>
<path d="M602 677 c-94 -95 -172 -180 -172 -189 0 -21 38 -58 59 -58 22 0 361
341 361 362 0 21 -38 58 -59 58 -9 0 -94 -78 -189 -173z"/>
<path d="M385 691 c-52 -23 -151 -125 -166 -169 -6 -18 -9 -66 -7 -106 4 -81
25 -120 95 -173 31 -24 48 -29 114 -32 57 -2 86 1 113 14 48 23 134 111 157
160 21 44 26 150 8 161 -13 8 -109 -84 -109 -105 0 -21 -48 -80 -84 -102 -18
-11 -49 -19 -74 -19 -37 0 -50 6 -78 34 -28 28 -34 41 -34 77 0 26 8 57 19 75
22 36 81 84 102 84 21 0 113 96 105 109 -11 18 -117 13 -161 -8z"/>
</g>
</svg>
