<?xml version="1.0" standalone="no"?>
<!DOCTYPE svg PUBLIC "-//W3C//DTD SVG 20010904//EN"
 "http://www.w3.org/TR/2001/REC-SVG-20010904/DTD/svg10.dtd">
<svg version="1.0" xmlns="http://www.w3.org/2000/svg"
 width="128.000000pt" height="128.000000pt" viewBox="0 0 128.000000 128.000000"
 preserveAspectRatio="xMidYMid meet">
<metadata>
Created by potrace 1.16, written by Peter Selinger 2001-2019
</metadata>
<g transform="translate(0.000000,128.000000) scale(0.100000,-0.100000)"
fill="#000000" stroke="none">
<path d="M400 1005 c0 -2 9 -19 20 -37 19 -31 20 -51 20 -325 l0 -291 -25 -30
c-14 -17 -25 -35 -25 -41 0 -7 43 -11 135 -11 79 0 135 4 135 10 0 5 -11 20
-25 34 -24 24 -25 29 -25 163 l0 138 65 -3 c124 -7 238 51 266 135 16 49 7
138 -18 171 -26 35 -77 69 -122 82 -35 10 -401 15 -401 5z m347 -139 c40 -43
43 -88 10 -137 -25 -38 -90 -79 -124 -79 -23 0 -23 2 -23 131 l0 132 52 -5
c44 -5 57 -11 85 -42z"/>
</g>
</svg>
