<?xml version="1.0" standalone="no"?>
<!DOCTYPE svg PUBLIC "-//W3C//DTD SVG 20010904//EN"
 "http://www.w3.org/TR/2001/REC-SVG-20010904/DTD/svg10.dtd">
<svg version="1.0" xmlns="http://www.w3.org/2000/svg"
 width="128.000000pt" height="128.000000pt" viewBox="0 0 128.000000 128.000000"
 preserveAspectRatio="xMidYMid meet">

<g transform="translate(0.000000,128.000000) scale(0.100000,-0.100000)"
fill="#000000" stroke="none">
<path d="M573 1006 c-110 -28 -173 -101 -173 -200 0 -85 2 -86 148 -86 l127 0
-50 29 c-90 52 -92 120 -3 155 50 21 95 15 155 -20 67 -39 73 -35 73 45 0 63
-2 69 -22 75 -49 14 -204 15 -255 2z"/>
<path d="M340 640 l0 -40 310 0 310 0 0 40 0 40 -310 0 -310 0 0 -40z"/>
<path d="M712 535 c40 -27 53 -54 44 -90 -8 -32 -58 -66 -105 -72 -45 -6 -138
18 -200 53 -52 28 -76 31 -67 7 4 -9 14 -45 22 -79 16 -62 18 -64 58 -75 71
-20 233 -15 297 10 109 42 173 141 153 239 l-6 32 -117 0 -116 0 37 -25z"/>
</g>
</svg>
