<?xml version="1.0" standalone="no"?>
<!DOCTYPE svg PUBLIC "-//W3C//DTD SVG 20010904//EN"
 "http://www.w3.org/TR/2001/REC-SVG-20010904/DTD/svg10.dtd">
<svg version="1.0" xmlns="http://www.w3.org/2000/svg"
 width="128.000000pt" height="128.000000pt" viewBox="0 0 128.000000 128.000000"
 preserveAspectRatio="xMidYMid meet">
<metadata>
Created by potrace 1.16, written by Peter Selinger 2001-2019
</metadata>
<g transform="translate(0.000000,128.000000) scale(0.100000,-0.100000)"
fill="#000000" stroke="none">
<path d="M320 1009 c0 -6 9 -22 20 -36 19 -24 20 -41 20 -243 0 -207 1 -219
23 -261 46 -87 194 -124 322 -81 33 11 62 17 65 13 6 -10 190 -21 190 -11 0 3
-11 17 -25 30 l-25 23 0 256 c0 239 2 258 20 281 11 14 20 28 20 33 0 4 -49 7
-110 7 -60 0 -110 -2 -110 -5 0 -2 9 -22 21 -44 19 -37 20 -54 17 -224 -3
-198 -8 -217 -64 -254 -33 -21 -100 -21 -142 1 -55 28 -62 61 -62 269 0 169 2
186 20 210 34 44 28 47 -90 47 -73 0 -110 -4 -110 -11z"/>
<path d="M330 240 l0 -40 310 0 310 0 0 40 0 40 -310 0 -310 0 0 -40z"/>
</g>
</svg>
